<?xml version="1.0" encoding="UTF-8" standalone="no"?>
<svg
   xmlns:dc="http://purl.org/dc/elements/1.1/"
   xmlns:cc="http://creativecommons.org/ns#"
   xmlns:rdf="http://www.w3.org/1999/02/22-rdf-syntax-ns#"
   xmlns:svg="http://www.w3.org/2000/svg"
   xmlns="http://www.w3.org/2000/svg"
   xmlns:sodipodi="http://sodipodi.sourceforge.net/DTD/sodipodi-0.dtd"
   xmlns:inkscape="http://www.inkscape.org/namespaces/inkscape"
   width="35cm"
   height="18cm"
   viewBox="-22 118 684 345"
   id="svg3279"
   version="1.1"
   inkscape:version="0.48.2 r9819"
   sodipodi:docname="pipelining.tex">
  <metadata
     id="metadata3569">
    <rdf:RDF>
      <cc:Work
         rdf:about="">
        <dc:format>image/svg+xml</dc:format>
        <dc:type
           rdf:resource="http://purl.org/dc/dcmitype/StillImage" />
        <dc:title></dc:title>
      </cc:Work>
    </rdf:RDF>
  </metadata>
  <defs
     id="defs3567" />
  <sodipodi:namedview
     pagecolor="#ffffff"
     bordercolor="#666666"
     borderopacity="1"
     objecttolerance="10"
     gridtolerance="10"
     guidetolerance="10"
     inkscape:pageopacity="0"
     inkscape:pageshadow="2"
     inkscape:window-width="1280"
     inkscape:window-height="738"
     id="namedview3565"
     showgrid="false"
     inkscape:zoom="0.81454783"
     inkscape:cx="620.07874"
     inkscape:cy="318.89764"
     inkscape:window-x="-8"
     inkscape:window-y="-8"
     inkscape:window-maximized="1"
     inkscape:current-layer="svg3279" />
  <g
     id="g3281">
    <rect
       style="fill: #e5e5e5"
       x="-20"
       y="120"
       width="100"
       height="140"
       id="rect3283" />
    <rect
       style="fill: none; fill-opacity:0; stroke-width: 2; stroke: #000000"
       x="-20"
       y="120"
       width="100"
       height="140"
       id="rect3285" />
  </g>
  <g
     id="g3287">
    <rect
       style="fill: #f5f5f5"
       x="-20"
       y="280"
       width="100"
       height="140"
       id="rect3289" />
    <rect
       style="fill: none; fill-opacity:0; stroke-width: 2; stroke: #000000"
       x="-20"
       y="280"
       width="100"
       height="140"
       id="rect3291" />
  </g>
  <g
     id="g3293">
    <line
       style="fill: none; fill-opacity:0; stroke-width: 2; stroke: #000000"
       x1="160"
       y1="180"
       x2="160.988"
       y2="195.037"
       id="line3295" />
    <polyline
       style="fill: none; fill-opacity:0; stroke-width: 2; stroke: #000000"
       points="155.49,187.618 161.135,197.269 165.468,186.962 "
       id="polyline3297" />
  </g>
  <g
     id="g3299">
    <line
       style="fill: none; fill-opacity:0; stroke-width: 2; stroke: #000000"
       x1="221.281"
       y1="259.5"
       x2="221.012"
       y2="275.029"
       id="line3301" />
    <polyline
       style="fill: none; fill-opacity:0; stroke-width: 2; stroke: #000000"
       points="216.147,267.179 220.973,277.264 226.146,267.352 "
       id="polyline3303" />
  </g>
  <g
     id="g3305">
    <line
       style="fill: none; fill-opacity:0; stroke-width: 2; stroke: #000000"
       x1="280.935"
       y1="339.5"
       x2="281.93"
       y2="355.037"
       id="line3307" />
    <polyline
       style="fill: none; fill-opacity:0; stroke-width: 2; stroke: #000000"
       points="276.444,347.609 282.073,357.269 286.423,346.969 "
       id="polyline3309" />
  </g>
  <g
     id="g3311">
    <line
       style="fill: none; fill-opacity:0; stroke-width: 2; stroke: #000000"
       x1="240"
       y1="180"
       x2="240.988"
       y2="195.037"
       id="line3313" />
    <polyline
       style="fill: none; fill-opacity:0; stroke-width: 2; stroke: #000000"
       points="235.49,187.618 241.135,197.269 245.468,186.962 "
       id="polyline3315" />
  </g>
  <g
     id="g3317">
    <line
       style="fill: none; fill-opacity:0; stroke-width: 2; stroke: #000000"
       x1="301.281"
       y1="259.5"
       x2="301.012"
       y2="275.029"
       id="line3319" />
    <polyline
       style="fill: none; fill-opacity:0; stroke-width: 2; stroke: #000000"
       points="296.147,267.179 300.973,277.264 306.146,267.352 "
       id="polyline3321" />
  </g>
  <g
     id="g3323">
    <line
       style="fill: none; fill-opacity:0; stroke-width: 2; stroke: #000000"
       x1="360.935"
       y1="339.5"
       x2="361.93"
       y2="355.037"
       id="line3325" />
    <polyline
       style="fill: none; fill-opacity:0; stroke-width: 2; stroke: #000000"
       points="356.444,347.609 362.073,357.269 366.423,346.969 "
       id="polyline3327" />
  </g>
  <g
     id="g3329">
    <line
       style="fill: none; fill-opacity:0; stroke-width: 2; stroke: #000000"
       x1="320"
       y1="180"
       x2="320.988"
       y2="195.037"
       id="line3331" />
    <polyline
       style="fill: none; fill-opacity:0; stroke-width: 2; stroke: #000000"
       points="315.49,187.618 321.135,197.269 325.468,186.962 "
       id="polyline3333" />
  </g>
  <g
     id="g3335">
    <line
       style="fill: none; fill-opacity:0; stroke-width: 2; stroke: #000000"
       x1="381.281"
       y1="259.5"
       x2="381.012"
       y2="275.029"
       id="line3337" />
    <polyline
       style="fill: none; fill-opacity:0; stroke-width: 2; stroke: #000000"
       points="376.147,267.179 380.973,277.264 386.146,267.352 "
       id="polyline3339" />
  </g>
  <g
     id="g3341">
    <line
       style="fill: none; fill-opacity:0; stroke-width: 2; stroke: #000000"
       x1="440.935"
       y1="339.5"
       x2="441.93"
       y2="355.037"
       id="line3343" />
    <polyline
       style="fill: none; fill-opacity:0; stroke-width: 2; stroke: #000000"
       points="436.444,347.609 442.073,357.269 446.423,346.969 "
       id="polyline3345" />
  </g>
  <g
     id="g3347">
    <line
       style="fill: none; fill-opacity:0; stroke-width: 2; stroke: #000000"
       x1="400"
       y1="180"
       x2="400.988"
       y2="195.037"
       id="line3349" />
    <polyline
       style="fill: none; fill-opacity:0; stroke-width: 2; stroke: #000000"
       points="395.49,187.618 401.135,197.269 405.468,186.962 "
       id="polyline3351" />
  </g>
  <g
     id="g3353">
    <line
       style="fill: none; fill-opacity:0; stroke-width: 2; stroke: #000000"
       x1="461.281"
       y1="259.5"
       x2="461.012"
       y2="275.029"
       id="line3355" />
    <polyline
       style="fill: none; fill-opacity:0; stroke-width: 2; stroke: #000000"
       points="456.147,267.179 460.973,277.264 466.146,267.352 "
       id="polyline3357" />
  </g>
  <g
     id="g3359">
    <line
       style="fill: none; fill-opacity:0; stroke-width: 2; stroke: #000000"
       x1="520.935"
       y1="339.5"
       x2="521.93"
       y2="355.037"
       id="line3361" />
    <polyline
       style="fill: none; fill-opacity:0; stroke-width: 2; stroke: #000000"
       points="516.444,347.609 522.073,357.269 526.423,346.969 "
       id="polyline3363" />
  </g>
  <g
     id="g3365">
    <line
       style="fill: none; fill-opacity:0; stroke-width: 2; stroke: #000000"
       x1="480"
       y1="180"
       x2="480.988"
       y2="195.037"
       id="line3367" />
    <polyline
       style="fill: none; fill-opacity:0; stroke-width: 2; stroke: #000000"
       points="475.49,187.618 481.135,197.269 485.468,186.962 "
       id="polyline3369" />
  </g>
  <g
     id="g3371">
    <line
       style="fill: none; fill-opacity:0; stroke-width: 2; stroke: #000000"
       x1="541.281"
       y1="259.5"
       x2="541.012"
       y2="275.029"
       id="line3373" />
    <polyline
       style="fill: none; fill-opacity:0; stroke-width: 2; stroke: #000000"
       points="536.147,267.179 540.973,277.264 546.146,267.352 "
       id="polyline3375" />
  </g>
  <g
     id="g3377">
    <line
       style="fill: none; fill-opacity:0; stroke-width: 2; stroke: #000000"
       x1="600.935"
       y1="339.5"
       x2="601.93"
       y2="355.037"
       id="line3379" />
    <polyline
       style="fill: none; fill-opacity:0; stroke-width: 2; stroke: #000000"
       points="596.444,347.609 602.073,357.269 606.423,346.969 "
       id="polyline3381" />
  </g>
  <text
     font-size="12.7998"
     style="fill: #000000;text-anchor:start;font-family:sans-serif;font-style:normal;font-weight:normal"
     x="360"
     y="460"
     id="text3383">
    <tspan
       x="360"
       y="460"
       id="tspan3385">Time</tspan>
  </text>
  <g
     id="g3387">
    <g
       id="g3389">
      <path
         style="fill: #ffffff"
         d="M -1.625 290 L 61.625,290 C 70.358,290 77.4375,298.954 77.4375,310 C 77.4375,321.046 70.358,330 61.625,330 L -1.625,330 C -10.358,330 -17.4375,321.046 -17.4375,310 C -17.4375,298.954 -10.358,290 -1.625,290z"
         id="path3391" />
      <path
         style="fill: none; fill-opacity:0; stroke-width: 2; stroke: #000000"
         d="M -1.625 290 L 61.625,290 C 70.358,290 77.4375,298.954 77.4375,310 C 77.4375,321.046 70.358,330 61.625,330 L -1.625,330 C -10.358,330 -17.4375,321.046 -17.4375,310 C -17.4375,298.954 -10.358,290 -1.625,290"
         id="path3393" />
      <text
         font-size="12.7998"
         style="fill: #000000;text-anchor:middle;font-family:sans-serif;font-style:normal;font-weight:normal"
         x="30"
         y="314"
         id="text3395">
        <tspan
           x="30"
           y="314"
           id="tspan3397">Thread 3</tspan>
      </text>
    </g>
    <g
       id="g3399">
      <path
         style="fill: #ffffff"
         d="M -1.625 370 L 61.625,370 C 70.358,370 77.4375,378.954 77.4375,390 C 77.4375,401.046 70.358,410 61.625,410 L -1.625,410 C -10.358,410 -17.4375,401.046 -17.4375,390 C -17.4375,378.954 -10.358,370 -1.625,370z"
         id="path3401" />
      <path
         style="fill: none; fill-opacity:0; stroke-width: 2; stroke: #000000"
         d="M -1.625 370 L 61.625,370 C 70.358,370 77.4375,378.954 77.4375,390 C 77.4375,401.046 70.358,410 61.625,410 L -1.625,410 C -10.358,410 -17.4375,401.046 -17.4375,390 C -17.4375,378.954 -10.358,370 -1.625,370"
         id="path3403" />
      <text
         font-size="12.7998"
         style="fill: #000000;text-anchor:middle;font-family:sans-serif;font-style:normal;font-weight:normal"
         x="30"
         y="394"
         id="text3405">
        <tspan
           x="30"
           y="394"
           id="tspan3407">Thread 4</tspan>
      </text>
    </g>
  </g>
  <g
     id="g3409">
    <g
       id="g3411">
      <path
         style="fill: #ffffff"
         d="M -1.625 209.75 L 61.625,209.75 C 70.358,209.75 77.4375,218.704 77.4375,229.75 C 77.4375,240.796 70.358,249.75 61.625,249.75 L -1.625,249.75 C -10.358,249.75 -17.4375,240.796 -17.4375,229.75 C -17.4375,218.704 -10.358,209.75 -1.625,209.75z"
         id="path3413" />
      <path
         style="fill: none; fill-opacity:0; stroke-width: 2; stroke: #000000"
         d="M -1.625 209.75 L 61.625,209.75 C 70.358,209.75 77.4375,218.704 77.4375,229.75 C 77.4375,240.796 70.358,249.75 61.625,249.75 L -1.625,249.75 C -10.358,249.75 -17.4375,240.796 -17.4375,229.75 C -17.4375,218.704 -10.358,209.75 -1.625,209.75"
         id="path3415" />
      <text
         font-size="12.7998"
         style="fill: #000000;text-anchor:middle;font-family:sans-serif;font-style:normal;font-weight:normal"
         x="30"
         y="233.75"
         id="text3417">
        <tspan
           x="30"
           y="233.75"
           id="tspan3419">Thread 2</tspan>
      </text>
    </g>
    <g
       id="g3421">
      <path
         style="fill: #ffffff"
         d="M -1.625 130.25 L 61.625,130.25 C 70.358,130.25 77.4375,139.204 77.4375,150.25 C 77.4375,161.296 70.358,170.25 61.625,170.25 L -1.625,170.25 C -10.358,170.25 -17.4375,161.296 -17.4375,150.25 C -17.4375,139.204 -10.358,130.25 -1.625,130.25z"
         id="path3423" />
      <path
         style="fill: none; fill-opacity:0; stroke-width: 2; stroke: #000000"
         d="M -1.625 130.25 L 61.625,130.25 C 70.358,130.25 77.4375,139.204 77.4375,150.25 C 77.4375,161.296 70.358,170.25 61.625,170.25 L -1.625,170.25 C -10.358,170.25 -17.4375,161.296 -17.4375,150.25 C -17.4375,139.204 -10.358,130.25 -1.625,130.25"
         id="path3425" />
      <text
         font-size="12.7998"
         style="fill: #000000;text-anchor:middle;font-family:sans-serif;font-style:normal;font-weight:normal"
         x="30"
         y="154.25"
         id="text3427">
        <tspan
           x="30"
           y="154.25"
           id="tspan3429">Thread 1</tspan>
      </text>
    </g>
  </g>
  <text
     font-size="12.7998"
     style="fill: #000000;text-anchor:start;font-family:sans-serif;font-style:normal;font-weight:normal"
     x="12.925"
     y="354.45"
     id="text3431">
    <tspan
       x="12.925"
       y="354.45"
       id="tspan3433">CPU2</tspan>
  </text>
  <text
     font-size="12.7998"
     style="fill: #000000;text-anchor:start;font-family:sans-serif;font-style:normal;font-weight:normal"
     x="12.925"
     y="194.45"
     id="text3435">
    <tspan
       x="12.925"
       y="194.45"
       id="tspan3437">CPU1</tspan>
  </text>
  <g
     id="g3439">
    <rect
       style="fill: #add8e6"
       x="161.281"
       y="199.5"
       width="60"
       height="60"
       id="rect3441" />
    <rect
       style="fill: none; fill-opacity:0; stroke-width: 0.02; stroke: #000000"
       x="161.281"
       y="199.5"
       width="60"
       height="60"
       id="rect3443" />
  </g>
  <g
     id="g3445">
    <rect
       style="fill: #add8e6"
       x="241.281"
       y="199.5"
       width="60"
       height="60"
       id="rect3447" />
    <rect
       style="fill: none; fill-opacity:0; stroke-width: 0.02; stroke: #000000"
       x="241.281"
       y="199.5"
       width="60"
       height="60"
       id="rect3449" />
  </g>
  <g
     id="g3451">
    <rect
       style="fill: #add8e6"
       x="321.281"
       y="199.5"
       width="60"
       height="60"
       id="rect3453" />
    <rect
       style="fill: none; fill-opacity:0; stroke-width: 0.02; stroke: #000000"
       x="321.281"
       y="199.5"
       width="60"
       height="60"
       id="rect3455" />
  </g>
  <g
     id="g3457">
    <rect
       style="fill: #add8e6"
       x="401.281"
       y="199.5"
       width="60"
       height="60"
       id="rect3459" />
    <rect
       style="fill: none; fill-opacity:0; stroke-width: 0.02; stroke: #000000"
       x="401.281"
       y="199.5"
       width="60"
       height="60"
       id="rect3461" />
  </g>
  <g
     id="g3463">
    <rect
       style="fill: #add8e6"
       x="481.281"
       y="199.5"
       width="60"
       height="60"
       id="rect3465" />
    <rect
       style="fill: none; fill-opacity:0; stroke-width: 0.02; stroke: #000000"
       x="481.281"
       y="199.5"
       width="60"
       height="60"
       id="rect3467" />
  </g>
  <g
     id="g3469">
    <rect
       style="fill: #90ee90"
       x="100"
       y="120"
       width="60"
       height="60"
       id="rect3471" />
    <rect
       style="fill: none; fill-opacity:0; stroke-width: 0.02; stroke: #000000"
       x="100"
       y="120"
       width="60"
       height="60"
       id="rect3473" />
  </g>
  <g
     id="g3475">
    <rect
       style="fill: #90ee90"
       x="180"
       y="120"
       width="60"
       height="60"
       id="rect3477" />
    <rect
       style="fill: none; fill-opacity:0; stroke-width: 0.02; stroke: #000000"
       x="180"
       y="120"
       width="60"
       height="60"
       id="rect3479" />
  </g>
  <g
     id="g3481">
    <rect
       style="fill: #90ee90"
       x="260"
       y="120"
       width="60"
       height="60"
       id="rect3483" />
    <rect
       style="fill: none; fill-opacity:0; stroke-width: 0.02; stroke: #000000"
       x="260"
       y="120"
       width="60"
       height="60"
       id="rect3485" />
  </g>
  <g
     id="g3487">
    <rect
       style="fill: #90ee90"
       x="340"
       y="120"
       width="60"
       height="60"
       id="rect3489" />
    <rect
       style="fill: none; fill-opacity:0; stroke-width: 0.02; stroke: #000000"
       x="340"
       y="120"
       width="60"
       height="60"
       id="rect3491" />
  </g>
  <g
     id="g3493">
    <rect
       style="fill: #90ee90"
       x="420"
       y="120"
       width="60"
       height="60"
       id="rect3495" />
    <rect
       style="fill: none; fill-opacity:0; stroke-width: 0.02; stroke: #000000"
       x="420"
       y="120"
       width="60"
       height="60"
       id="rect3497" />
  </g>
  <g
     id="g3499">
    <rect
       style="fill: #ffc250"
       x="220.935"
       y="279.5"
       width="60"
       height="60"
       id="rect3501" />
    <rect
       style="fill: none; fill-opacity:0; stroke-width: 0.02; stroke: #000000"
       x="220.935"
       y="279.5"
       width="60"
       height="60"
       id="rect3503" />
  </g>
  <g
     id="g3505">
    <rect
       style="fill: #ffc250"
       x="300.935"
       y="279.5"
       width="60"
       height="60"
       id="rect3507" />
    <rect
       style="fill: none; fill-opacity:0; stroke-width: 0.02; stroke: #000000"
       x="300.935"
       y="279.5"
       width="60"
       height="60"
       id="rect3509" />
  </g>
  <g
     id="g3511">
    <rect
       style="fill: #ffc250"
       x="380.935"
       y="279.5"
       width="60"
       height="60"
       id="rect3513" />
    <rect
       style="fill: none; fill-opacity:0; stroke-width: 0.02; stroke: #000000"
       x="380.935"
       y="279.5"
       width="60"
       height="60"
       id="rect3515" />
  </g>
  <g
     id="g3517">
    <rect
       style="fill: #ffc250"
       x="460.935"
       y="279.5"
       width="60"
       height="60"
       id="rect3519" />
    <rect
       style="fill: none; fill-opacity:0; stroke-width: 0.02; stroke: #000000"
       x="460.935"
       y="279.5"
       width="60"
       height="60"
       id="rect3521" />
  </g>
  <g
     id="g3523">
    <rect
       style="fill: #ffc250"
       x="540.935"
       y="279.5"
       width="60"
       height="60"
       id="rect3525" />
    <rect
       style="fill: none; fill-opacity:0; stroke-width: 0.02; stroke: #000000"
       x="540.935"
       y="279.5"
       width="60"
       height="60"
       id="rect3527" />
  </g>
  <g
     id="g3529">
    <rect
       style="fill: #ffc0cb"
       x="282.216"
       y="359.5"
       width="60"
       height="60"
       id="rect3531" />
    <rect
       style="fill: none; fill-opacity:0; stroke-width: 0.02; stroke: #000000"
       x="282.216"
       y="359.5"
       width="60"
       height="60"
       id="rect3533" />
  </g>
  <g
     id="g3535">
    <rect
       style="fill: #ffc0cb"
       x="362.216"
       y="359.5"
       width="60"
       height="60"
       id="rect3537" />
    <rect
       style="fill: none; fill-opacity:0; stroke-width: 0.02; stroke: #000000"
       x="362.216"
       y="359.5"
       width="60"
       height="60"
       id="rect3539" />
  </g>
  <g
     id="g3541">
    <rect
       style="fill: #ffc0cb"
       x="442.216"
       y="359.5"
       width="60"
       height="60"
       id="rect3543" />
    <rect
       style="fill: none; fill-opacity:0; stroke-width: 0.02; stroke: #000000"
       x="442.216"
       y="359.5"
       width="60"
       height="60"
       id="rect3545" />
  </g>
  <g
     id="g3547">
    <rect
       style="fill: #ffc0cb"
       x="522.216"
       y="359.5"
       width="60"
       height="60"
       id="rect3549" />
    <rect
       style="fill: none; fill-opacity:0; stroke-width: 0.02; stroke: #000000"
       x="522.216"
       y="359.5"
       width="60"
       height="60"
       id="rect3551" />
  </g>
  <g
     id="g3553">
    <rect
       style="fill: #ffc0cb"
       x="602.216"
       y="359.5"
       width="60"
       height="60"
       id="rect3555" />
    <rect
       style="fill: none; fill-opacity:0; stroke-width: 0.02; stroke: #000000"
       x="602.216"
       y="359.5"
       width="60"
       height="60"
       id="rect3557" />
  </g>
  <g
     id="g3559">
    <line
       style="fill: none; fill-opacity:0; stroke-width: 2; stroke: #000000"
       x1="100"
       y1="440"
       x2="655.528"
       y2="440"
       id="line3561" />
    <polyline
       style="fill: none; fill-opacity:0; stroke-width: 2; stroke: #000000"
       points="647.764,445 657.764,440 647.764,435 "
       id="polyline3563" />
  </g>
</svg>
