<?xml version="1.0" encoding="UTF-8" standalone="no"?>
<svg
   xmlns:dc="http://purl.org/dc/elements/1.1/"
   xmlns:cc="http://creativecommons.org/ns#"
   xmlns:rdf="http://www.w3.org/1999/02/22-rdf-syntax-ns#"
   xmlns:svg="http://www.w3.org/2000/svg"
   xmlns="http://www.w3.org/2000/svg"
   xmlns:sodipodi="http://sodipodi.sourceforge.net/DTD/sodipodi-0.dtd"
   xmlns:inkscape="http://www.inkscape.org/namespaces/inkscape"
   width="13cm"
   height="8cm"
   viewBox="90 174 251 155"
   id="svg2"
   version="1.1"
   inkscape:version="0.48.2 r9819"
   sodipodi:docname="sensor-design.pdf">
  <metadata
     id="metadata98">
    <rdf:RDF>
      <cc:Work
         rdf:about="">
        <dc:format>image/svg+xml</dc:format>
        <dc:type
           rdf:resource="http://purl.org/dc/dcmitype/StillImage" />
        <dc:title></dc:title>
      </cc:Work>
    </rdf:RDF>
  </metadata>
  <defs
     id="defs96" />
  <sodipodi:namedview
     pagecolor="#ffffff"
     bordercolor="#666666"
     borderopacity="1"
     objecttolerance="10"
     gridtolerance="10"
     guidetolerance="10"
     inkscape:pageopacity="0"
     inkscape:pageshadow="2"
     inkscape:window-width="1280"
     inkscape:window-height="738"
     id="namedview94"
     showgrid="false"
     inkscape:zoom="0.69904275"
     inkscape:cx="230.31496"
     inkscape:cy="141.73228"
     inkscape:window-x="-8"
     inkscape:window-y="-8"
     inkscape:window-maximized="1"
     inkscape:current-layer="svg2" />
  <rect
     style="fill: none; fill-opacity:0; stroke-width: 0.6; stroke: #000000"
     x="104"
     y="224"
     width="92"
     height="92"
     id="rect4" />
  <rect
     style="fill: none; fill-opacity:0; stroke-width: 1; stroke-dasharray: 2; stroke: #ff0000"
     x="104"
     y="224"
     width="92"
     height="92"
     id="rect6" />
  <rect
     style="fill: none; fill-opacity:0; stroke-width: 1; stroke-dasharray: 2; stroke: #0000ff"
     x="112"
     y="232"
     width="76"
     height="76"
     id="rect8" />
  <g
     id="g10">
    <rect
       style="fill: #ffffff"
       x="121"
       y="241"
       width="58"
       height="58"
       id="rect12" />
    <rect
       style="fill: none; fill-opacity:0; stroke-width: 2; stroke: #000000"
       x="121"
       y="241"
       width="58"
       height="58"
       id="rect14" />
    <polyline
       style="fill: none; fill-opacity:0; stroke-width: 0.2; stroke: #000000"
       points="138.4,252.6 138.4,287.4 161.6,270 138.4,252.6 "
       id="polyline16" />
    <line
       style="fill: none; fill-opacity:0; stroke-width: 0.2; stroke: #000000"
       x1="161.6"
       y1="255.5"
       x2="161.6"
       y2="284.5"
       id="line18" />
    <line
       style="fill: none; fill-opacity:0; stroke-width: 0.2; stroke: #000000"
       x1="126.8"
       y1="270"
       x2="138.4"
       y2="270"
       id="line20" />
    <line
       style="fill: none; fill-opacity:0; stroke-width: 0.2; stroke: #000000"
       x1="161.6"
       y1="270"
       x2="173.2"
       y2="270"
       id="line22" />
  </g>
  <g
     id="g24">
    <g
       id="g26">
      <rect
         style="fill: #0000ff"
         x="99.8234"
         y="178.125"
         width="8"
         height="8"
         id="rect28" />
      <rect
         style="fill: none; fill-opacity:0; stroke-width: 2.35099e-037; stroke: #000000"
         x="99.8234"
         y="178.125"
         width="8"
         height="8"
         id="rect30" />
    </g>
    <text
       font-size="12.8"
       style="fill:#000000;text-anchor:start;font-family:cmr12;font-style:normal;font-weight:normal;-inkscape-font-specification:cmr12;font-stretch:normal;font-variant:normal"
       x="112"
       y="186.575"
       id="text32">
      <tspan
         x="112"
         y="186.575"
         id="tspan34"
         style="-inkscape-font-specification:cmr12;font-family:cmr12;font-weight:normal;font-style:normal;font-stretch:normal;font-variant:normal">Low thermal conductivity </tspan>
    </text>
  </g>
  <g
     id="g36">
    <g
       id="g38">
      <rect
         style="fill: #ff0000"
         x="99.8234"
         y="191.55"
         width="8"
         height="8"
         id="rect40" />
      <rect
         style="fill: none; fill-opacity:0; stroke-width: 2.35099e-037; stroke: #000000"
         x="99.8234"
         y="191.55"
         width="8"
         height="8"
         id="rect42" />
    </g>
    <text
       font-size="12.8"
       style="fill:#000000;text-anchor:start;font-family:cmr12;font-style:normal;font-weight:normal;-inkscape-font-specification:cmr12;font-stretch:normal;font-variant:normal"
       x="112"
       y="200"
       id="text44">
      <tspan
         x="112"
         y="200"
         id="tspan46"
         style="-inkscape-font-specification:cmr12;font-family:cmr12;font-weight:normal;font-style:normal;font-stretch:normal;font-variant:normal">High thermal conductivity</tspan>
    </text>
  </g>
  <polyline
     style="fill: none; fill-opacity:0; stroke-width: 1; stroke-dasharray: 8; stroke: #0000ff"
     points="304,324 336,324 336,216 96,216 96,324 200,324 "
     id="polyline48" />
  <polyline
     style="fill: none; fill-opacity:0; stroke-width: 2; stroke: #000000"
     points="300,316 300,328 340,328 340,212 92,212 92,316 92,316 92,328 204,328 204,316 "
     id="polyline50" />
  <path
     style="fill: none; fill-opacity:0; stroke-width: 1.4; stroke: #000000"
     d="M 116 270 C 116,270 116,250 116,242 C 116,234 130,236.334 150,236 C 170,235.666 222,236 252,236 C 282,236 328,234 328,242 C 328,250 328,304 328,304"
     id="path52" />
  <polyline
     style="fill: none; fill-opacity:0; stroke-width: 2; stroke: #000000"
     points="204,316 204,243.632 300,243.632 300,316 "
     id="polyline54" />
  <g
     id="g56">
    <rect
       style="fill: #ffffff"
       x="301.721"
       y="258"
       width="4"
       height="38"
       id="rect58" />
    <rect
       style="fill: none; fill-opacity:0; stroke-width: 2; stroke: #000000"
       x="301.721"
       y="258"
       width="4"
       height="38"
       id="rect60" />
  </g>
  <g
     id="g62">
    <rect
       style="fill: #ffffff"
       x="306"
       y="248"
       width="10"
       height="56"
       id="rect64" />
    <rect
       style="fill: none; fill-opacity:0; stroke-width: 2; stroke: #000000"
       x="306"
       y="248"
       width="10"
       height="56"
       id="rect66" />
  </g>
  <line
     style="fill: none; fill-opacity:0; stroke-width: 2; stroke: #000000"
     x1="316"
     y1="276"
     x2="328"
     y2="276"
     id="line68" />
  <line
     style="fill: none; fill-opacity:0; stroke-width: 2; stroke: #000000"
     x1="316"
     y1="266"
     x2="328"
     y2="266"
     id="line70" />
  <g
     id="g72">
    <path
       style="fill: none; fill-opacity:0; stroke-width: 2; stroke: #000000"
       d="M 292 273 C 283,282 283,264 274,273 C 265,282 265,264 256,273 C 247,282 247,264 238,273 C 229,280.2 229,271.2 223.6,273"
       id="path74" />
    <polygon
       style="fill: #000000"
       points="220,273 225.4,276.6 223.6,273 225.4,269.4 "
       id="polygon76" />
    <polygon
       style="fill: none; fill-opacity:0; stroke-width: 2; stroke: #000000"
       points="220,273 225.4,276.6 223.6,273 225.4,269.4 "
       id="polygon78" />
  </g>
  <g
     id="g80">
    <rect
       style="fill: #ffffff"
       x="208"
       y="232"
       width="40"
       height="4"
       id="rect82" />
    <rect
       style="fill: none; fill-opacity:0; stroke-width: 1; stroke: #000000"
       x="208"
       y="232"
       width="40"
       height="4"
       id="rect84" />
  </g>
  <g
     id="g86">
    <rect
       style="fill: #ffffff"
       x="260"
       y="232"
       width="20"
       height="4"
       id="rect88" />
    <rect
       style="fill: none; fill-opacity:0; stroke-width: 1; stroke: #000000"
       x="260"
       y="232"
       width="20"
       height="4"
       id="rect90" />
  </g>
  <polyline
     style="fill: none; fill-opacity:0; stroke-width: 1; stroke-dasharray: 2; stroke: #ff0000"
     points="303.721,258 303.721,240 196,240 196,270 "
     id="polyline92" />
</svg>
