<?xml version="1.0" encoding="UTF-8" standalone="no"?>
<!-- Created with Inkscape (http://www.inkscape.org/) -->
<svg
   xmlns:svg="http://www.w3.org/2000/svg"
   xmlns="http://www.w3.org/2000/svg"
   version="1.0"
   width="22"
   height="21"
   id="svg3817">
  <defs
     id="defs3819" />
  <g
     transform="translate(-615.46967,-424.8805)"
     id="layer1">
    <path
       d="M 637.05591,435.24912 C 637.05589,438.09942 636.07014,440.54964 634.09867,442.59977 C 632.16589,444.61059 629.80355,445.68421 627.01167,445.82065 C 626.83589,445.82065 626.66013,445.82065 626.48439,445.82065 C 623.63408,445.82065 621.18387,444.84444 619.13374,442.89201 C 617.12292,440.95925 616.03946,438.59691 615.88337,435.805 C 615.88337,435.61019 615.88337,435.42489 615.88337,435.24912 C 615.88337,432.53528 616.86941,430.0949 618.8415,427.92797 C 618.88022,427.869 618.92878,427.81032 618.98717,427.75191 L 616.00044,426.75634 L 622.82381,424.94035 L 620.97922,431.73511 C 620.7254,430.48515 620.40308,429.48927 620.01224,428.74749 C 618.41133,430.42646 617.523,432.30084 617.34724,434.37062 C 617.32817,434.66317 617.31864,434.96583 617.31864,435.27862 C 617.31864,437.81612 618.21651,439.9732 620.01224,441.74987 C 621.80856,443.52653 623.96594,444.41487 626.48439,444.41487 C 629.02246,444.41487 631.18938,443.5167 632.98513,441.72037 C 634.76177,439.92465 635.6501,437.76757 635.65013,435.24912 C 635.6501,432.80875 634.75224,430.64154 632.95653,428.74749 L 633.9816,427.75191 C 635.97273,430.01655 636.9975,432.51562 637.05591,435.24912 L 637.05591,435.24912 z "
       style="font-size:29.28461456px;font-style:normal;font-weight:normal;fill:#000000;fill-opacity:1;stroke:none;stroke-width:1px;stroke-linecap:butt;stroke-linejoin:miter;stroke-opacity:1;font-family:Arial"
       id="text3928" />
  </g>
</svg>
